<svg xmlns="http://www.w3.org/2000/svg" xmlns:xlink="http://www.w3.org/1999/xlink" xmlns:xodm="http://www.corel.com/coreldraw/odm/2003" width="1920" height="1080" version="1.1" viewBox="0 0 1920 1080" xml:space="preserve" style="shape-rendering:geometricPrecision;text-rendering:geometricPrecision;image-rendering:optimizeQuality;fill-rule:evenodd;clip-rule:evenodd"><defs><style type="text/css">.fil0{fill:#4d4d4d}</style></defs><g id="Layer_x0020_1"><metadata id="CorelCorpID_0Corel-Layer"/><path d="M1176.79 295.7l-471 0c-31,0 -56.36,25.36 -56.36,56.36l0 467.48c0,31 25.36,56.37 56.36,56.37l471 0c31,0 56.36,-25.37 56.36,-56.37l0 -467.48c0,-31 -25.36,-56.36 -56.36,-56.36zm-94.22 174.95l44.93 0c9.19,0 16.7,7.52 16.7,16.7l0 196.91c0,9.18 -7.51,16.69 -16.7,16.69l-44.93 0c-9.19,0 -16.71,-7.51 -16.71,-16.69l0 -196.91c0,-9.18 7.52,-16.7 16.71,-16.7zm-327.49 114.29l44.94 0c9.18,0 16.7,7.51 16.7,16.7l0 82.62c0,9.18 -7.52,16.69 -16.7,16.69l-44.94 0c-9.19,0 -16.7,-7.51 -16.7,-16.69l0 -82.62c0,-9.19 7.51,-16.7 16.7,-16.7zm109.58 -74.38l44.93 0c9.19,0 16.7,7.52 16.7,16.7l0 157c0,9.18 -7.51,16.69 -16.7,16.69l-44.93 0c-9.19,0 -16.71,-7.51 -16.71,-16.69l0 -157c0,-9.18 7.52,-16.7 16.71,-16.7zm110.07 35.7l44.93 0c9.19,0 16.7,7.52 16.7,16.7l0 121.3c0,9.18 -7.51,16.69 -16.7,16.69l-44.93 0c-9.19,0 -16.71,-7.51 -16.71,-16.69l0 -121.3c0,-9.18 7.52,-16.7 16.71,-16.7z" class="fil0"/></g></svg>