<svg xmlns="http://www.w3.org/2000/svg" xmlns:xlink="http://www.w3.org/1999/xlink" xmlns:xodm="http://www.corel.com/coreldraw/odm/2003" width="1920" height="1080" version="1.1" viewBox="0 0 1920 1080" xml:space="preserve" style="shape-rendering:geometricPrecision;text-rendering:geometricPrecision;image-rendering:optimizeQuality;fill-rule:evenodd;clip-rule:evenodd"><defs><style type="text/css">.fil0{fill:#fff}.fil1{fill:#093;fill-rule:nonzero}</style></defs><g id="Layer_x0020_1"><metadata id="CorelCorpID_0Corel-Layer"/><circle cx="973.99" cy="546.68" r="455.15" class="fil0"/><g id="_105553557999232"><path d="M973.97 206.34c-187.64,0 -340.3,152.65 -340.3,340.29 0,187.64 152.66,340.3 340.3,340.3 187.64,0 340.29,-152.66 340.29,-340.3 0,-187.64 -152.65,-340.29 -340.29,-340.29zm195.4 282.81l-213.79 213.79c-9.09,9.09 -21.17,14.1 -34.03,14.1 -12.85,0 -24.94,-5.01 -34.03,-14.1l-108.96 -108.96c-9.09,-9.09 -14.1,-21.17 -14.1,-34.03 0,-12.85 5.01,-24.94 14.1,-34.03 9.09,-9.09 21.17,-14.09 34.03,-14.09 12.86,0 24.94,5 34.03,14.1l74.93 74.92 179.76 -179.76c9.09,-9.09 21.17,-14.09 34.03,-14.09 12.85,0 24.93,5 34.02,14.09 18.77,18.77 18.77,49.3 0.01,68.06z" class="fil1"/></g></g></svg>