<svg xmlns="http://www.w3.org/2000/svg" xmlns:xlink="http://www.w3.org/1999/xlink" xmlns:xodm="http://www.corel.com/coreldraw/odm/2003" width="1920" height="1080" version="1.1" viewBox="0 0 1920 1080" xml:space="preserve" style="shape-rendering:geometricPrecision;text-rendering:geometricPrecision;image-rendering:optimizeQuality;fill-rule:evenodd;clip-rule:evenodd"><defs><style type="text/css">.fil0{fill:#4d4d4d}</style></defs><g id="Layer_x0020_1"><metadata id="CorelCorpID_0Corel-Layer"/><path d="M1208.65 271.16l-489.71 0c-32.23,0 -58.6,26.37 -58.6,58.6l0 486.05c0,32.23 26.37,58.6 58.6,58.6l489.71 0c32.23,0 58.6,-26.37 58.6,-58.6l0 -486.05c0,-32.23 -26.37,-58.6 -58.6,-58.6zm-244.86 127.54c46.97,0 85.05,38.08 85.05,85.05 0,46.97 -38.08,85.05 -85.05,85.05 -46.96,0 -85.04,-38.08 -85.04,-85.05 0,-46.97 38.08,-85.05 85.04,-85.05zm-93.39 348.17l186.79 0c30.21,0 54.94,-24.72 54.94,-54.94l0 -28.5c0,-45.89 -37.55,-83.43 -83.44,-83.43l-129.79 0c-45.89,0 -83.44,37.54 -83.44,83.43l0 28.5c0,30.22 24.73,54.94 54.94,54.94z" class="fil0"/></g></svg>